<svg xmlns="http://www.w3.org/2000/svg" xmlns:xlink="http://www.w3.org/1999/xlink" width="40" zoomAndPan="magnify" viewBox="0 0 30 30.000001" height="40" preserveAspectRatio="xMidYMid meet" version="1.0"><defs><clipPath id="9e1bf6f383"><path d="M 0.484375 0 L 29.515625 0 L 29.515625 29.03125 L 0.484375 29.03125 Z M 0.484375 0 " clip-rule="nonzero"/></clipPath><clipPath id="bc614bec70"><path d="M 0.484375 0 L 29.515625 0 L 29.515625 29.03125 L 0.484375 29.03125 Z M 0.484375 0 " clip-rule="nonzero"/></clipPath><clipPath id="e4d9124f71"><path d="M 1.933594 0 L 28.066406 0 C 28.867188 0 29.515625 0.648438 29.515625 1.453125 L 29.515625 27.582031 C 29.515625 28.382812 28.867188 29.03125 28.066406 29.03125 L 1.933594 29.03125 C 1.132812 29.03125 0.484375 28.382812 0.484375 27.582031 L 0.484375 1.453125 C 0.484375 0.648438 1.132812 0 1.933594 0 Z M 1.933594 0 " clip-rule="nonzero"/></clipPath><clipPath id="aa4d062fb0"><path d="M 5.140625 2.199219 L 24.734375 2.199219 L 24.734375 26.832031 L 5.140625 26.832031 Z M 5.140625 2.199219 " clip-rule="nonzero"/></clipPath></defs><g clip-path="url(#9e1bf6f383)"><path fill="#ffffff" d="M 0.484375 0 L 29.515625 0 L 29.515625 29.03125 L 0.484375 29.03125 Z M 0.484375 0 " fill-opacity="1" fill-rule="nonzero"/><path fill="#000000" d="M 0.484375 0 L 29.515625 0 L 29.515625 29.03125 L 0.484375 29.03125 Z M 0.484375 0 " fill-opacity="1" fill-rule="nonzero"/></g><g clip-path="url(#bc614bec70)"><g clip-path="url(#e4d9124f71)"><path fill="#ffffff" d="M 0.484375 0 L 29.515625 0 L 29.515625 29.03125 L 0.484375 29.03125 Z M 0.484375 0 " fill-opacity="1" fill-rule="nonzero"/></g></g><g clip-path="url(#aa4d062fb0)"><path fill="#000000" d="M 20.761719 25.179688 C 14.871094 25.179688 10.097656 20.40625 10.097656 14.515625 C 10.097656 8.625 14.871094 3.851562 20.761719 3.851562 C 22.207031 3.851562 23.589844 4.140625 24.847656 4.664062 C 22.789062 3.117188 20.230469 2.199219 17.457031 2.199219 C 10.652344 2.199219 5.140625 7.714844 5.140625 14.515625 C 5.140625 21.316406 10.652344 26.832031 17.457031 26.832031 C 20.230469 26.832031 22.789062 25.914062 24.847656 24.367188 C 23.589844 24.890625 22.207031 25.179688 20.761719 25.179688 " fill-opacity="1" fill-rule="nonzero"/></g><path fill="#000000" d="M 17.457031 21.324219 C 13.695312 21.324219 10.648438 18.277344 10.648438 14.515625 C 10.648438 10.753906 13.695312 7.707031 17.457031 7.707031 C 18.703125 7.707031 19.875 8.042969 20.882812 8.628906 L 23.015625 6.496094 C 21.671875 5.75 20.15625 5.351562 18.578125 5.351562 C 16.132812 5.351562 13.832031 6.304688 12.101562 8.035156 C 10.371094 9.765625 9.417969 12.066406 9.417969 14.515625 C 9.417969 15.933594 9.738281 17.304688 10.34375 18.539062 L 10.34375 18.542969 C 10.398438 18.648438 10.449219 18.753906 10.507812 18.859375 L 10.507812 18.855469 C 10.925781 19.632812 11.457031 20.351562 12.101562 20.996094 C 13.832031 22.726562 16.132812 23.679688 18.578125 23.679688 C 20.15625 23.679688 21.671875 23.28125 23.015625 22.535156 L 20.882812 20.402344 C 19.875 20.988281 18.703125 21.324219 17.457031 21.324219 " fill-opacity="1" fill-rule="nonzero"/></svg>