<svg xmlns="http://www.w3.org/2000/svg" xmlns:xlink="http://www.w3.org/1999/xlink" width="40" zoomAndPan="magnify" viewBox="0 0 30 30.000001" height="40" preserveAspectRatio="xMidYMid meet" version="1.0"><defs><clipPath id="4183ea3e06"><path d="M 0.484375 0 L 29.515625 0 L 29.515625 29.03125 L 0.484375 29.03125 Z M 0.484375 0 " clip-rule="nonzero"/></clipPath><clipPath id="90bd8cccd8"><path d="M 4.558594 1.46875 L 25.4375 1.46875 L 25.4375 27.5625 L 4.558594 27.5625 Z M 4.558594 1.46875 " clip-rule="nonzero"/></clipPath></defs><g clip-path="url(#4183ea3e06)"><path fill="#ffffff" d="M 0.484375 0 L 29.515625 0 L 29.515625 29.03125 L 0.484375 29.03125 Z M 0.484375 0 " fill-opacity="1" fill-rule="nonzero"/><path fill="#ffffff" d="M 0.484375 0 L 29.515625 0 L 29.515625 29.03125 L 0.484375 29.03125 Z M 0.484375 0 " fill-opacity="1" fill-rule="nonzero"/></g><g clip-path="url(#90bd8cccd8)"><path fill="#000000" d="M 21.105469 25.8125 C 14.867188 25.8125 9.808594 20.753906 9.808594 14.515625 C 9.808594 8.277344 14.867188 3.21875 21.105469 3.21875 C 22.640625 3.21875 24.101562 3.523438 25.4375 4.078125 C 23.253906 2.441406 20.542969 1.46875 17.605469 1.46875 C 10.402344 1.46875 4.558594 7.308594 4.558594 14.515625 C 4.558594 21.722656 10.402344 27.5625 17.605469 27.5625 C 20.542969 27.5625 23.253906 26.589844 25.4375 24.953125 C 24.101562 25.507812 22.640625 25.8125 21.105469 25.8125 " fill-opacity="1" fill-rule="nonzero"/></g><path fill="#000000" d="M 17.605469 21.726562 C 13.621094 21.726562 10.394531 18.5 10.394531 14.515625 C 10.394531 10.53125 13.621094 7.304688 17.605469 7.304688 C 18.929688 7.304688 20.167969 7.660156 21.234375 8.28125 L 23.496094 6.019531 C 22.074219 5.230469 20.46875 4.808594 18.796875 4.808594 C 16.203125 4.808594 13.765625 5.820312 11.933594 7.652344 C 10.097656 9.484375 9.089844 11.921875 9.089844 14.515625 C 9.089844 16.019531 9.429688 17.46875 10.070312 18.777344 L 10.074219 18.78125 C 10.128906 18.894531 10.183594 19.007812 10.246094 19.117188 L 10.246094 19.113281 C 10.6875 19.9375 11.253906 20.699219 11.933594 21.378906 C 13.765625 23.210938 16.203125 24.222656 18.796875 24.222656 C 20.46875 24.222656 22.074219 23.800781 23.496094 23.011719 L 21.234375 20.75 C 20.167969 21.371094 18.929688 21.726562 17.605469 21.726562 " fill-opacity="1" fill-rule="nonzero"/></svg>