<svg version="1.1" id="Layer_1" xmlns="http://www.w3.org/2000/svg" xmlns:xlink="http://www.w3.org/1999/xlink" x="0px" y="0px"
	 width="100%" viewBox="0 0 500 500" enable-background="new 0 0 500 500" xml:space="preserve">
<path fill="#000000" opacity="1.000000" stroke="none" 
	d="
M247.000000,501.000000 
	C166.000015,501.000000 85.499992,500.972137 5.000206,501.096069 
	C1.575972,501.101318 0.903036,500.423828 0.905301,497.000000 
	C1.013779,333.000092 1.013772,169.000122 0.905334,5.000239 
	C0.903070,1.576923 1.575816,0.903022 4.999884,0.905287 
	C168.999771,1.013774 332.999725,1.013761 496.999634,0.905353 
	C500.422668,0.903090 501.096985,1.575443 501.094727,4.999764 
	C500.986206,168.999649 500.986237,332.999603 501.094604,496.999512 
	C501.096893,500.422272 500.425476,501.101105 497.000275,501.096039 
	C413.833649,500.972992 330.666809,501.000000 247.000000,501.000000 
z"/>
<path fill="#00B6AD" opacity="1.000000" stroke="none" 
	d="
M253.783646,179.818481 
	C254.871475,179.618927 255.608963,179.299759 256.653870,178.930588 
	C259.376831,179.678940 261.052338,178.665710 262.275391,176.656403 
	C263.798187,174.154694 265.719757,171.956039 267.753510,169.410583 
	C271.222443,168.666275 273.388702,168.968658 275.488098,172.529190 
	C279.368896,179.110931 285.407593,182.290421 293.545197,179.940033 
	C298.044617,178.912247 301.505524,177.066360 304.211639,173.620560 
	C306.905090,170.190826 309.186859,170.352341 312.485291,173.279037 
	C314.850525,175.377686 315.444397,178.851471 318.573792,180.752609 
	C318.889099,200.322632 318.907776,219.645187 319.025421,238.967148 
	C319.055634,243.934052 313.080811,251.681183 306.460815,251.838287 
	C287.479156,252.288788 268.476471,252.153610 249.490005,251.810226 
	C246.302750,251.752579 245.915329,252.509109 245.980011,255.063126 
	C246.072769,258.726044 246.033249,262.393433 245.982574,266.058014 
	C245.969818,266.980164 246.412674,268.161163 245.337204,268.744415 
	C244.099564,269.415588 243.189453,268.614868 242.272263,267.808319 
	C237.205612,263.352966 232.015610,259.032867 227.063934,254.454391 
	C225.239761,252.767685 223.542664,251.701355 220.964874,251.965958 
	C214.761276,252.602722 210.123840,249.935608 207.156479,244.589432 
	C205.576675,241.743179 204.269882,242.196411 202.106339,243.960541 
	C197.907013,247.384613 194.484024,246.530319 190.992416,242.206665 
	C185.949615,235.962158 183.756287,228.446838 183.254532,220.954926 
	C182.564377,210.650116 181.514099,199.989563 185.149017,189.980850 
	C186.851425,185.293350 187.345154,179.588638 193.242065,177.020737 
	C195.776825,175.916946 198.525635,175.285248 200.287292,176.365067 
	C204.494659,178.943954 206.412552,176.263153 208.579285,173.789246 
	C212.967041,168.779465 216.078812,168.870392 220.402267,173.746536 
	C223.248398,176.956482 226.601074,179.717316 229.818054,182.374725 
	C230.814758,181.160767 231.775146,181.487122 233.059799,182.140320 
	C239.218399,186.365082 244.958801,185.125366 250.906036,181.742981 
	C251.817703,180.765732 252.464310,180.025192 253.783646,179.818481 
z"/>
<path fill="#00B6AD" opacity="1.000000" stroke="none" 
	d="
M254.081573,179.574341 
	C253.562286,180.531784 252.990570,181.125473 252.148438,181.878113 
	C245.883148,182.774261 239.909500,183.806168 233.475220,183.187042 
	C232.278671,182.718842 231.434677,182.399277 230.249939,182.074951 
	C229.909195,182.070190 229.944000,182.036804 229.944641,182.059906 
	C229.850555,181.881683 229.755829,181.680359 229.807648,181.179199 
	C230.192139,179.246689 229.380478,178.545517 228.078049,177.457275 
	C218.189438,169.195007 216.534729,156.404892 223.649094,145.857071 
	C226.240646,142.014816 230.586945,140.775192 234.416397,139.386841 
	C246.312775,135.073898 259.036194,142.678391 262.062225,155.003006 
	C264.009369,162.933487 261.644073,169.358139 256.391235,175.116974 
	C255.308548,176.303955 253.648590,177.173248 254.081573,179.574341 
z"/>
<path fill="#FFFFFF" opacity="1.000000" stroke="none" 
	d="
M407.983948,311.220520 
	C407.918304,315.812561 406.130371,317.513397 401.683044,317.107727 
	C396.586975,316.642944 391.415985,317.000000 386.164398,317.000000 
	C387.922119,321.253174 391.536591,322.675171 394.404419,319.890472 
	C397.643402,316.745331 401.283600,318.286835 404.728882,318.132355 
	C406.697601,318.044067 406.118805,319.831543 405.473694,320.998566 
	C401.641327,327.931427 395.360168,329.629974 388.065582,328.986115 
	C382.541168,328.498474 378.752563,325.699585 376.818848,320.391113 
	C375.358521,316.382233 375.794098,312.452362 376.885803,308.493042 
	C367.563538,306.519562 366.870087,309.936310 365.132874,318.691071 
	C363.147644,328.695801 363.574615,328.780518 353.210999,327.655304 
	C354.807739,319.451080 356.522156,311.267120 357.938324,303.031860 
	C358.439270,300.118744 359.448700,298.791504 362.616669,298.931732 
	C367.170074,299.133301 371.636658,299.518799 376.310547,298.226654 
	C381.168915,296.883453 377.816345,301.935913 379.380707,303.618713 
	C384.892181,299.504272 390.563904,296.497284 398.017639,298.850220 
	C404.192566,300.799500 406.540741,305.246796 407.983948,311.220520 
z"/>
<path fill="#FFFFFF" opacity="1.000000" stroke="none" 
	d="
M94.909248,329.000000 
	C83.293770,329.825653 74.867493,322.522888 74.157181,312.093872 
	C73.472992,302.048492 79.115921,292.186646 90.495239,289.080658 
	C100.824310,286.261292 109.269447,289.305237 114.080078,296.440491 
	C114.882782,297.631104 114.816620,298.855042 115.425110,299.995483 
	C116.885490,302.732635 116.288208,304.241089 112.737610,304.053314 
	C108.920486,303.851410 105.556953,304.302460 102.503174,300.387939 
	C98.851845,295.707458 90.769547,297.779907 87.180672,303.477295 
	C83.840958,308.779144 84.776657,314.463806 89.579384,318.050262 
	C92.877480,320.513123 100.146904,319.152161 103.193466,315.129547 
	C104.422920,313.506195 105.501007,312.824585 107.481491,312.956390 
	C110.132210,313.132751 112.803505,313.000031 115.480896,313.000031 
	C113.443787,322.297760 103.334938,329.661255 94.909248,329.000000 
z"/>
<path fill="#FFFFFF" opacity="1.000000" stroke="none" 
	d="
M302.253174,323.341614 
	C296.044495,330.063690 289.064728,330.598694 281.329224,326.885925 
	C280.855865,330.003540 280.647308,332.947693 279.904572,335.750275 
	C279.354187,337.826965 279.224396,340.304443 275.548645,340.123962 
	C269.349487,339.819641 269.060242,340.103973 270.058350,333.880524 
	C271.848907,322.716187 274.013733,311.612061 275.983002,300.475800 
	C276.108551,299.765686 276.266144,298.975281 276.985992,299.077484 
	C283.714630,300.032928 290.510071,296.941528 297.024139,298.688171 
	C307.364258,301.460724 309.675751,314.357758 302.253174,323.341614 
z"/>
<path fill="#FFFFFF" opacity="1.000000" stroke="none" 
	d="
M236.752930,327.080444 
	C228.457489,328.629242 220.312668,327.637970 212.201080,328.028717 
	C209.368011,328.165222 209.765915,326.269775 210.094955,324.778107 
	C212.387497,314.385406 214.526703,303.968597 216.031876,293.426422 
	C216.448242,290.510101 217.493561,288.633942 221.251465,288.888153 
	C227.375290,289.302429 233.551544,289.129822 239.697739,288.943359 
	C242.610291,288.854980 243.288498,289.626251 242.854736,292.589203 
	C242.200195,297.060364 240.231964,298.998871 235.678970,298.029510 
	C234.724625,297.826355 233.667435,298.136932 232.696335,297.976501 
	C228.284546,297.247620 225.081558,298.085663 225.201248,303.912659 
	C230.026520,303.912659 234.927902,303.912659 239.942581,303.912659 
	C237.460754,312.999786 237.456635,313.154022 229.280869,312.935699 
	C225.117096,312.824463 221.551483,312.769073 222.844147,319.000031 
	C226.418152,319.000031 230.474487,319.094116 234.524033,318.968903 
	C237.519775,318.876312 239.105682,319.314880 237.204788,322.755554 
	C236.631119,323.793976 237.008774,325.357941 236.752930,327.080444 
z"/>
<path fill="#00B6AD" opacity="1.000000" stroke="none" 
	d="
M318.893982,180.629959 
	C316.930298,181.100418 315.237244,181.067169 314.685242,178.587051 
	C314.284424,176.786102 312.925934,175.457108 311.652100,174.112381 
	C309.191162,171.514465 307.165100,171.153625 304.927032,174.500290 
	C302.469452,178.175232 299.172821,180.751801 294.155548,180.163757 
	C293.977997,176.925049 291.677979,178.037781 290.350159,178.056778 
	C280.056152,178.204132 273.334900,169.685989 275.069397,159.186966 
	C276.239258,152.105957 285.198608,148.342606 293.835815,150.222672 
	C301.991180,151.997864 305.631897,165.038757 299.470276,172.025711 
	C298.336395,173.311478 296.297455,174.209198 297.256927,176.574814 
	C298.715973,176.381577 299.238739,174.973602 300.565430,174.091278 
	C301.051697,173.826447 301.239075,173.695740 301.702606,173.362213 
	C303.821838,172.125473 303.287018,168.067429 306.554871,169.097336 
	C310.339447,170.290146 314.812744,170.571899 316.899689,174.824966 
	C317.749023,176.555817 318.279053,178.443375 318.893982,180.629959 
z"/>
<path fill="#FFFFFF" opacity="1.000000" stroke="none" 
	d="
M163.000732,313.280457 
	C166.386307,302.268768 172.422516,297.238617 181.457687,298.054474 
	C190.135605,298.838013 194.717422,304.835327 194.988358,312.464722 
	C195.099579,315.596313 193.894485,317.216125 190.361816,317.066498 
	C184.873734,316.833984 179.367126,317.037628 173.868408,317.063751 
	C173.735504,317.064392 173.603043,317.151855 173.470367,317.198853 
	C175.066437,321.209808 179.556885,322.713409 182.528976,319.617188 
	C185.621780,316.395203 189.058792,318.083984 192.088120,318.321075 
	C194.386398,318.500977 192.486221,321.060059 191.872147,322.199493 
	C189.178085,327.198151 180.068344,330.421570 173.653702,328.867920 
	C166.722946,327.189270 163.184509,322.654449 163.001587,315.211395 
	C162.989304,314.711731 163.000061,314.211456 163.000732,313.280457 
z"/>
<path fill="#FFFFFF" opacity="1.000000" stroke="none" 
	d="
M332.577728,328.993958 
	C321.878021,323.950806 319.602997,319.572693 322.006958,309.472961 
	C323.267700,304.176086 331.118439,298.392578 337.580475,298.000244 
	C344.331757,297.590332 351.980377,301.484100 353.449799,307.110077 
	C356.109406,317.293060 351.386230,327.303772 338.997223,328.963074 
	C337.034210,329.225983 335.005676,328.999451 332.577728,328.993958 
z"/>
<path fill="#FFFFFF" opacity="1.000000" stroke="none" 
	d="
M150.992615,310.529114 
	C150.180023,308.419525 149.117188,306.584747 147.063278,307.126709 
	C145.188583,307.621429 143.590866,308.467590 142.775314,311.090515 
	C141.422516,315.441315 141.093567,319.917145 140.064026,324.282928 
	C139.228683,327.825165 136.409668,329.140503 130.722763,327.985596 
	C126.711044,327.170898 129.847046,324.950623 130.065048,323.564087 
	C131.242828,316.073639 132.678467,308.624023 133.983292,301.153015 
	C134.146835,300.216583 133.789078,299.020874 135.309753,299.031616 
	C141.234558,299.073395 147.175430,298.174774 153.011749,298.282257 
	C159.192795,298.396057 163.636841,305.866028 161.811554,312.059357 
	C160.976196,314.893799 160.828827,317.779907 160.164474,320.599884 
	C158.422241,327.995087 158.736099,328.073181 151.284546,327.994995 
	C150.296707,327.984619 149.309570,327.906555 148.570129,327.871582 
	C148.926453,322.096283 151.376572,316.751526 150.992615,310.529114 
z"/>
<path fill="#FFFFFF" opacity="1.000000" stroke="none" 
	d="
M236.560181,327.508575 
	C240.563858,323.257965 244.672073,319.074585 248.192963,314.350189 
	C249.334686,312.818207 248.754745,311.880341 248.132950,310.390961 
	C246.589935,306.694885 243.962494,303.448395 243.479126,299.325745 
	C253.367676,298.360626 253.907623,298.663574 256.881531,307.829010 
	C260.163788,298.709717 266.870270,297.921814 274.899628,299.403595 
	C272.025848,302.678223 269.414703,306.158508 266.281525,309.078613 
	C263.278870,311.877014 263.115051,314.536469 264.958466,317.911835 
	C266.711029,321.120972 268.185944,324.481750 269.891602,328.000000 
	C267.817352,328.000000 266.101959,327.737000 264.499146,328.050140 
	C259.999023,328.929291 257.953339,326.548065 257.038116,322.688995 
	C256.579895,320.756927 255.748535,318.531525 254.257935,321.453827 
	C250.419479,328.979095 243.985321,328.421051 236.949554,327.676849 
	C236.555206,327.479736 236.579102,327.490967 236.560181,327.508575 
z"/>
<path fill="#FFFFFF" opacity="1.000000" stroke="none" 
	d="
M318.282349,317.350769 
	C317.683380,320.461243 317.719879,323.329437 316.879242,325.912170 
	C315.609589,329.813049 312.051575,327.549042 309.524323,327.942474 
	C306.741272,328.375671 305.740021,328.162292 306.683228,324.291107 
	C309.353455,313.331360 311.014099,302.122589 312.954559,290.991333 
	C313.248749,289.303772 313.659332,287.987549 315.529510,288.045319 
	C318.318329,288.131531 321.167999,287.449677 323.865326,288.541779 
	C324.078247,288.627991 323.956909,289.791504 323.831970,290.422852 
	C322.079193,299.278687 320.298798,308.128998 318.282349,317.350769 
z"/>
<path fill="#FFFFFF" opacity="1.000000" stroke="none" 
	d="
M408.981598,317.763245 
	C409.264069,311.633087 411.203400,306.239441 411.936890,300.644958 
	C412.231140,298.400360 413.636414,299.056366 414.787689,299.022034 
	C419.869934,298.870453 424.981567,299.808533 430.015137,298.066772 
	C432.209930,297.307312 433.518219,298.465179 432.961426,300.940308 
	C432.041901,305.027863 431.691864,309.446716 425.290833,308.126953 
	C422.323486,307.515137 420.686157,310.109467 420.022949,312.839294 
	C419.000519,317.048004 418.248413,321.324615 417.154999,325.513275 
	C415.736877,330.945862 411.331268,327.643616 408.595123,327.721893 
	C405.299164,327.816193 407.367523,325.096344 407.841492,323.392853 
	C408.314453,321.692719 407.551544,319.715912 408.981598,317.763245 
z"/>
<path fill="#FFFFFF" opacity="1.000000" stroke="none" 
	d="
M130.894592,299.805908 
	C128.782059,308.183289 127.343765,316.273010 126.053131,324.384979 
	C125.807671,325.927765 125.885887,327.761536 124.083565,327.873444 
	C121.141357,328.056122 118.118309,328.497742 115.230301,327.512634 
	C115.034264,327.445801 115.203773,326.022064 115.357124,325.260376 
	C116.882820,317.681854 118.852608,310.160767 119.798050,302.512299 
	C120.207001,299.203857 121.219429,298.712830 123.920517,298.978485 
	C126.216202,299.204254 128.530258,299.243347 130.894592,299.805908 
z"/>
<path fill="#FFFFFF" opacity="1.000000" stroke="none" 
	d="
M128.833862,294.999939 
	C126.070923,295.000000 123.768135,295.000000 121.691376,295.000000 
	C120.619942,293.968536 121.357689,293.342194 121.701347,292.678802 
	C122.579918,290.982788 120.939827,288.064392 123.317215,287.424866 
	C125.945114,286.718048 128.867722,287.092194 131.662720,287.027069 
	C133.173431,286.991852 133.397964,288.468445 132.921280,289.023682 
	C131.363495,290.838074 133.930374,295.160095 128.833862,294.999939 
z"/>
<path fill="#00B7AD" opacity="1.000000" stroke="none" 
	d="
M267.603882,169.098236 
	C267.120911,173.655670 263.686005,176.535522 261.025635,179.844635 
	C260.253632,180.804901 258.226471,182.075897 257.019287,179.232147 
	C258.932648,175.325073 263.820465,174.082077 264.505829,169.417374 
	C264.543427,169.161438 266.268250,169.153412 267.603882,169.098236 
z"/>
<path fill="#00B6AD" opacity="1.000000" stroke="none" 
	d="
M229.711334,180.977386 
	C229.961243,181.079849 229.968338,181.280350 229.960358,181.781921 
	C229.498383,181.883392 228.903214,181.753952 229.711334,180.977386 
z"/>
<path fill="#00B6AD" opacity="1.000000" stroke="none" 
	d="
M301.717041,173.140228 
	C301.838989,173.459686 301.619934,173.681885 301.093018,173.891556 
	C301.061310,173.678467 301.258270,173.399796 301.717041,173.140228 
z"/>
<path fill="#000000" opacity="1.000000" stroke="none" 
	d="
M272.373108,210.784973 
	C273.934448,210.766586 273.793793,212.239944 274.655945,212.629410 
	C278.807343,214.504807 279.072357,215.979111 275.558868,218.633789 
	C273.762573,219.991013 271.633606,220.903000 269.677948,222.055206 
	C263.729584,225.559784 257.776581,229.056946 251.856354,232.608612 
	C247.796066,235.044464 246.054398,234.241425 246.023346,229.655197 
	C245.959229,220.182022 246.053574,210.707703 245.978363,201.234680 
	C245.949524,197.600662 246.650665,196.787598 250.437424,198.505890 
	C256.867523,201.423706 262.686432,205.346008 268.768494,208.807617 
	C269.817505,209.404648 271.855438,208.591232 272.373108,210.784973 
z"/>
<path fill="#000000" opacity="1.000000" stroke="none" 
	d="
M233.092300,183.437439 
	C239.078094,181.484146 245.162079,181.721420 251.554153,181.888062 
	C251.365997,185.435181 248.288040,184.580078 246.285599,185.180817 
	C241.774216,186.534210 237.186417,187.023209 233.092300,183.437439 
z"/>
<path fill="#000000" opacity="1.000000" stroke="none" 
	d="
M219.679657,185.733643 
	C222.790894,185.855453 222.359100,188.012650 221.610840,189.373596 
	C221.124359,190.258408 219.738556,191.335892 217.881577,190.522644 
	C216.084549,189.735657 215.815781,188.613312 216.063232,187.076019 
	C216.433502,184.775772 218.023422,185.620056 219.679657,185.733643 
z"/>
<path fill="#000000" opacity="1.000000" stroke="none" 
	d="
M393.754913,310.000000 
	C391.384186,310.000000 389.434723,310.000000 387.339478,310.000000 
	C391.166565,304.858429 393.351868,304.743683 397.724731,309.414551 
	C396.654968,310.465912 395.319519,309.785980 393.754913,310.000000 
z"/>
<path fill="#000000" opacity="1.000000" stroke="none" 
	d="
M293.344543,318.268158 
	C290.351593,321.278778 287.252655,320.450531 285.265076,318.294189 
	C283.474854,316.351868 282.811432,313.108887 284.970306,310.689880 
	C286.926392,308.498077 288.771851,305.924530 292.755981,307.856598 
	C296.342468,309.595825 296.345093,312.280243 295.798370,315.207245 
	C295.630371,316.106476 295.496490,317.953247 293.344543,318.268158 
z"/>
<path fill="#000000" opacity="1.000000" stroke="none" 
	d="
M182.477814,309.999695 
	C179.592224,310.000000 177.126007,310.000000 174.622864,310.000000 
	C176.844269,306.085876 180.689926,304.769104 183.253510,307.145447 
	C183.480469,307.355804 186.937912,309.604034 182.477814,309.999695 
z"/>
<path fill="#000000" opacity="1.000000" stroke="none" 
	d="
M343.011536,310.120239 
	C345.742004,314.852234 342.494324,317.510956 339.779663,319.469299 
	C337.376617,321.202911 334.025269,320.151245 332.427673,317.658295 
	C330.592224,314.794281 331.295044,311.183807 333.795898,309.177368 
	C336.539429,306.976227 340.156586,305.675598 343.011536,310.120239 
z"/>
</svg>